<svg xmlns="http://www.w3.org/2000/svg" xmlns:xlink="http://www.w3.org/1999/xlink" width="144.708" height="33.733" viewBox="0 0 144.708 33.733">
  <defs>
    <clipPath id="clip-path">
      <rect id="長方形_2114" data-name="長方形 2114" width="144.708" height="33.733" fill="none"/>
    </clipPath>
  </defs>
  <g id="グループ_2638" data-name="グループ 2638" transform="translate(0 0)">
    <g id="グループ_2637" data-name="グループ 2637" transform="translate(0 0)" clip-path="url(#clip-path)">
      <path id="パス_601" data-name="パス 601" d="M5.274,21.443a.947.947,0,0,1,.99.222,2.2,2.2,0,0,1,.586,1,2.125,2.125,0,0,1,.092.541,1.008,1.008,0,0,1-.12.482,2.124,2.124,0,0,1-.377.5,7.172,7.172,0,0,1-.675.6,5.542,5.542,0,0,0-1.43,1.671,2.045,2.045,0,0,0-.253,1.522A1.388,1.388,0,0,0,4.6,28.7a2.416,2.416,0,0,0,1.079.414,6.249,6.249,0,0,0,1.691.008,13.848,13.848,0,0,0,2.35-.5,10.589,10.589,0,0,0,2.534-1.1,7.894,7.894,0,0,0,1.908-1.569A5.269,5.269,0,0,0,15.233,24.1a3.274,3.274,0,0,0,.031-1.949,2.613,2.613,0,0,0-1.041-1.33,7.911,7.911,0,0,0-2.383-1.071q-2.748-.836-4.213-1.408T5.813,17.6a11.784,11.784,0,0,1-2.993-1.9A5.047,5.047,0,0,1,1.33,13.373a5.466,5.466,0,0,1-.1-2.563,9.3,9.3,0,0,1,.957-2.655A15.138,15.138,0,0,1,3.954,5.581,18.563,18.563,0,0,1,8.879,1.466,12.233,12.233,0,0,1,11.536.311,7.433,7.433,0,0,1,13.419,0,4.315,4.315,0,0,1,15.078.27a3.351,3.351,0,0,1,1.328.932,4.32,4.32,0,0,1,.873,1.683,5.547,5.547,0,0,1-.029,3.126,9.3,9.3,0,0,1-1.887,3.318,2.717,2.717,0,0,1-1.29.963,1.383,1.383,0,0,1-1.226-.175,1.844,1.844,0,0,1-.739-1.039,2.279,2.279,0,0,1,0-1.222A2.785,2.785,0,0,1,12.9,6.579a3.707,3.707,0,0,0,.8-1.114,1.6,1.6,0,0,0,.161-1.126c-.09-.308-.253-.479-.486-.512a1.918,1.918,0,0,0-.8.08,9.213,9.213,0,0,0-1.775.747A15.3,15.3,0,0,0,7.31,7.23,10.518,10.518,0,0,0,5.98,8.795a5.793,5.793,0,0,0-.786,1.569,2.416,2.416,0,0,0-.053,1.42,1.946,1.946,0,0,0,.42.771,3.193,3.193,0,0,0,.755.608,8.221,8.221,0,0,0,1.083.545c.414.178.892.361,1.424.555l5.715,2.106q1.1.4,1.993.824a9.341,9.341,0,0,1,1.563.916,5.793,5.793,0,0,1,1.116,1.059,3.732,3.732,0,0,1,.659,1.29,6.8,6.8,0,0,1,.082,3.387,9.234,9.234,0,0,1-1.569,3.432A13.117,13.117,0,0,1,15.255,30.3a15.267,15.267,0,0,1-4.577,2.14,19.9,19.9,0,0,1-4.281.822,9.887,9.887,0,0,1-3.132-.243,4.641,4.641,0,0,1-2.059-1.079A3.784,3.784,0,0,1,.171,30.251a4.769,4.769,0,0,1-.084-2.187,7.634,7.634,0,0,1,.877-2.379,10.5,10.5,0,0,1,1.759-2.3,11.931,11.931,0,0,1,2.55-1.942" transform="translate(0 -0.002)"/>
      <path id="パス_602" data-name="パス 602" d="M12.667,11.756a2.261,2.261,0,0,1,.637-.979,1.948,1.948,0,0,1,.875-.431,1.99,1.99,0,0,1,1.443.233,1.682,1.682,0,0,1,.822,1.169c.01.127.016.253.02.382a1.153,1.153,0,0,1-.059.4c-.12.394-.216.726-.292,1s-.141.522-.2.755-.12.461-.173.686-.124.494-.2.808q-.144.563-.331,1.23c-.127.445-.237.9-.335,1.357a13.426,13.426,0,0,0-.224,1.347,3.966,3.966,0,0,0,.033,1.167c.073.369.212.594.42.673a1.532,1.532,0,0,0,.826.016,3.357,3.357,0,0,0,1.151-.488,8.177,8.177,0,0,0,1.134-.888,11.775,11.775,0,0,0,1.073-1.143q.514-.624.957-1.247c.294-.414.561-.81.806-1.185s.447-.708.6-1a1.219,1.219,0,0,1,.745-.553.725.725,0,0,1,.667.206,1.43,1.43,0,0,1,.408.794,2.58,2.58,0,0,1-.035,1.053,3.053,3.053,0,0,1-.571,1.159q-.832,1.276-1.724,2.469a19.443,19.443,0,0,1-1.883,2.169,12.618,12.618,0,0,1-2.044,1.657,6.429,6.429,0,0,1-2.232.914,3.847,3.847,0,0,1-2.783-.328,3.447,3.447,0,0,1-1.485-2.465,6.6,6.6,0,0,1-.1-1.9,15.189,15.189,0,0,1,.288-1.883c.131-.614.28-1.214.449-1.8s.3-1.13.4-1.649c.031-.19.094-.488.194-.892s.2-.816.318-1.236c.129-.5.263-1.02.408-1.577M14,6.69a3.026,3.026,0,0,1-.02-1.01,2.833,2.833,0,0,1,1.077-1.869,2.751,2.751,0,0,1,1.19-.514A2.4,2.4,0,0,1,18,3.425a1.6,1.6,0,0,1,.706,1.065,2.869,2.869,0,0,1,.014.894,2.975,2.975,0,0,1-.284.963,2.531,2.531,0,0,1-.669.826,2.469,2.469,0,0,1-1.116.5,3.024,3.024,0,0,1-1.863-.045A1.482,1.482,0,0,1,14,6.69" transform="translate(11.013 3.331)"/>
      <path id="パス_603" data-name="パス 603" d="M22,14.043q-.545,1.6-1.014,3.124t-.894,2.808a11.724,11.724,0,0,0-.314,1.222,3.459,3.459,0,0,0-.067,1.183.7.7,0,0,0,.2.435.542.542,0,0,0,.469.1,3.2,3.2,0,0,0,1.059-.422,12.353,12.353,0,0,0,1.324-.9c.467-.359.959-.763,1.469-1.214s1.01-.912,1.5-1.385.949-.947,1.387-1.414.824-.894,1.161-1.283a1.137,1.137,0,0,1,.588-.32.7.7,0,0,1,.626.224,1.323,1.323,0,0,1,.345.753,2.358,2.358,0,0,1-.082,1.006,2.791,2.791,0,0,1-.684,1.1q-1.163,1.423-2.375,2.724a28.57,28.57,0,0,1-2.444,2.342,15.6,15.6,0,0,1-2.479,1.734,7.423,7.423,0,0,1-2.493.879,3.937,3.937,0,0,1-1.418-.01,2.321,2.321,0,0,1-.992-.467,2.225,2.225,0,0,1-.616-.816,3.913,3.913,0,0,1-.308-1.065,7.173,7.173,0,0,1,.031-2.206,14.45,14.45,0,0,1,.488-2.124l.851-2.728q.422-1.353.828-2.6l-.89.133A2.532,2.532,0,0,1,15.6,14.72a1.11,1.11,0,0,1-.561-.783,1.319,1.319,0,0,1,.059-.526,1.908,1.908,0,0,1,.308-.618,2.475,2.475,0,0,1,.567-.539,1.874,1.874,0,0,1,.82-.312l2.234-.333,3.075-9.322a2.678,2.678,0,0,1,.855-1.281,2.6,2.6,0,0,1,1.222-.53,2.1,2.1,0,0,1,1.187.161,1.215,1.215,0,0,1,.679,1.02A2,2,0,0,1,26,2.478c-.078.288-.188.624-.326,1.012-.088.253-.2.555-.328.906s-.271.724-.416,1.118-.3.81-.449,1.243-.308.849-.459,1.251q-.508,1.432-1.073,3.018l6.747-1.006a7,7,0,0,1,.918-.084,2.107,2.107,0,0,1,.743.1,1.186,1.186,0,0,1,.53.355,1.427,1.427,0,0,1,.273.7,1.618,1.618,0,0,1,0,.465.993.993,0,0,1-.208.453,1.565,1.565,0,0,1-.492.392,3.389,3.389,0,0,1-.855.3Z" transform="translate(15.642 0.467)"/>
      <path id="パス_604" data-name="パス 604" d="M43.89,14.068a17.836,17.836,0,0,1-1.979,2.2,21.436,21.436,0,0,1-2.373,1.961,15.954,15.954,0,0,1-2.446,1.44,6.513,6.513,0,0,1-2.216.647,2.34,2.34,0,0,1-1.671-.435,2.492,2.492,0,0,1-.777-1.869,8.973,8.973,0,0,1,.157-2.259,11.432,11.432,0,0,1-1.226,1.755,11.346,11.346,0,0,1-1.734,1.669,9.839,9.839,0,0,1-2.248,1.3,8.943,8.943,0,0,1-2.783.649,5.8,5.8,0,0,1-1.334-.041,2.99,2.99,0,0,1-1.157-.412,2.568,2.568,0,0,1-.847-.888,3.407,3.407,0,0,1-.408-1.469c0-.012.01-.226.033-.643a11.841,11.841,0,0,1,.377-1.981q.346-1.359,1.118-3.54t2.246-5.319a2.916,2.916,0,0,1,.92-1.216,2.364,2.364,0,0,1,1.216-.443,2.81,2.81,0,0,1,.608.024,2.067,2.067,0,0,1,.6.186,1.366,1.366,0,0,1,.471.361.952.952,0,0,1,.208.539,1.253,1.253,0,0,1-.029.4,4.45,4.45,0,0,1-.377.963q-.3.6-.7,1.377T26.7,10.7q-.444.894-.808,1.847a15.453,15.453,0,0,0-.6,1.926,6.954,6.954,0,0,0-.21,1.873,1.231,1.231,0,0,0,.263.673.77.77,0,0,0,.714.257,4.894,4.894,0,0,0,2.526-.955,10.866,10.866,0,0,0,2.126-2.044,18.141,18.141,0,0,0,1.7-2.548q.744-1.35,1.224-2.459A10.9,10.9,0,0,0,34.2,7.7a13.525,13.525,0,0,1,.541-1.553,4.527,4.527,0,0,1,.72-1.212,1.574,1.574,0,0,1,1.112-.549,1.549,1.549,0,0,1,1.228.386,1.654,1.654,0,0,1,.526,1.112,2.845,2.845,0,0,1-.2,1.055q-.23.679-.59,1.559t-.786,1.877q-.428,1-.775,2.024a17.1,17.1,0,0,0-.555,2,6.279,6.279,0,0,0-.145,1.783c.041.5.365.728.979.679a4.641,4.641,0,0,0,1.575-.5,11.6,11.6,0,0,0,1.93-1.214,18.016,18.016,0,0,0,1.979-1.761,13.518,13.518,0,0,0,1.712-2.128Z" transform="translate(21.687 4.551)"/>
      <path id="パス_605" data-name="パス 605" d="M53.966,13.692q-.38.352-1.016.971T51.5,16.008q-.814.725-1.732,1.457A19.264,19.264,0,0,1,47.9,18.793a12.668,12.668,0,0,1-1.883.973,4.5,4.5,0,0,1-1.742.367,2.39,2.39,0,0,1-1.251-.326,2.723,2.723,0,0,1-.859-.826,3.582,3.582,0,0,1-.5-1.145,5.026,5.026,0,0,1-.153-1.31,6.136,6.136,0,0,1,.071-.867,3.613,3.613,0,0,1,.218-.8q-.661.872-1.5,1.793a14.626,14.626,0,0,1-1.8,1.677,10.126,10.126,0,0,1-2,1.232,4.855,4.855,0,0,1-2.11.469,4.412,4.412,0,0,1-1.263-.235,4.231,4.231,0,0,1-1.361-.737,4.115,4.115,0,0,1-1.073-1.31,3.963,3.963,0,0,1-.418-1.951,9.9,9.9,0,0,1,.284-2.046,14.526,14.526,0,0,1,.822-2.469,14.99,14.99,0,0,1,1.387-2.528,11.188,11.188,0,0,1,1.981-2.228,9.529,9.529,0,0,1,2.591-1.581,8.1,8.1,0,0,1,3.228-.584,5.126,5.126,0,0,1,1.608.249,6.9,6.9,0,0,1,1.167.514,5.938,5.938,0,0,1,.955.743c.237-.122.482-.239.735-.347a6.079,6.079,0,0,1,.661-.255,1.957,1.957,0,0,1,.6-.108,1.907,1.907,0,0,1,1.294.453,1.276,1.276,0,0,1,.49.967.948.948,0,0,1-.022.231c-.071.265-.184.6-.335,1l-.506,1.345c-.188.492-.377,1.006-.573,1.54s-.369,1.059-.528,1.573-.29,1-.394,1.451a5.578,5.578,0,0,0-.157,1.159,2.216,2.216,0,0,0,.2,1.039.733.733,0,0,0,.706.416,1.808,1.808,0,0,0,.745-.192,7.152,7.152,0,0,0,.939-.522q.5-.327,1.043-.753c.359-.282.706-.567,1.045-.857q1.184-1.031,2.516-2.357a1.04,1.04,0,0,1,.653-.265.833.833,0,0,1,.7.414,1.577,1.577,0,0,1,.271.914,1.335,1.335,0,0,1-.408.979M39.526,8.136a3.917,3.917,0,0,0-1.91.482,5.876,5.876,0,0,0-1.645,1.3,6.588,6.588,0,0,0-1.151,1.818,5.3,5.3,0,0,0-.439,2.034,7.065,7.065,0,0,0,.041.869,2.519,2.519,0,0,0,.233.83,1.713,1.713,0,0,0,.526.633,1.552,1.552,0,0,0,.928.261,2.035,2.035,0,0,0,1.081-.4,8.936,8.936,0,0,0,1.287-1.032,16.737,16.737,0,0,0,1.3-1.387q.637-.756,1.147-1.483a14.386,14.386,0,0,0,.83-1.31,2.157,2.157,0,0,0,.322-.853,1.1,1.1,0,0,0-.263-.726,2.514,2.514,0,0,0-.663-.561,3.366,3.366,0,0,0-.843-.353,3.177,3.177,0,0,0-.786-.124" transform="translate(31.501 4.534)"/>
      <path id="パス_606" data-name="パス 606" d="M48.318,13.064q-.891,1.442-1.691,2.816t-1.5,2.536a11.187,11.187,0,0,0-.584,1.118,3.455,3.455,0,0,0-.331,1.139.7.7,0,0,0,.1.469.54.54,0,0,0,.435.2,3.156,3.156,0,0,0,1.126-.173,12.075,12.075,0,0,0,1.494-.573q.8-.367,1.7-.853t1.769-1.014c.584-.353,1.139-.706,1.671-1.063s1-.688,1.42-.99a1.121,1.121,0,0,1,.643-.18.7.7,0,0,1,.561.359,1.327,1.327,0,0,1,.167.81,2.4,2.4,0,0,1-.308.963,2.805,2.805,0,0,1-.912.914q-1.451,1.123-2.926,2.118a28.644,28.644,0,0,1-2.908,1.732,15.616,15.616,0,0,1-2.808,1.132,7.392,7.392,0,0,1-2.626.3,3.924,3.924,0,0,1-1.381-.331,2.327,2.327,0,0,1-.859-.675,2.3,2.3,0,0,1-.42-.937,3.952,3.952,0,0,1-.057-1.106,7.12,7.12,0,0,1,.526-2.142,14.526,14.526,0,0,1,.951-1.961q.731-1.243,1.445-2.467t1.392-2.344l-.9-.071a2.547,2.547,0,0,1-1.577-.5,1.125,1.125,0,0,1-.371-.89,1.335,1.335,0,0,1,.178-.5,1.861,1.861,0,0,1,.441-.533,2.487,2.487,0,0,1,.671-.4,1.9,1.9,0,0,1,.871-.12l2.253.178,5.093-8.39A2.678,2.678,0,0,1,52.191.579,2.622,2.622,0,0,1,53.5.336a2.1,2.1,0,0,1,1.12.424,1.22,1.22,0,0,1,.435,1.147,2.04,2.04,0,0,1-.241.79q-.211.392-.545.912c-.143.226-.32.5-.526.808s-.426.645-.655,1-.471.72-.718,1.108-.49.759-.728,1.118q-.817,1.276-1.726,2.7l6.8.539a7.362,7.362,0,0,1,.912.124,2.2,2.2,0,0,1,.7.265,1.177,1.177,0,0,1,.437.465,1.4,1.4,0,0,1,.108.743,1.573,1.573,0,0,1-.108.455,1.009,1.009,0,0,1-.3.394,1.526,1.526,0,0,1-.569.271,3.353,3.353,0,0,1-.9.1Z" transform="translate(41.698 0.341)"/>
      <path id="パス_607" data-name="パス 607" d="M50.79,9.665a2.235,2.235,0,0,1,.914-.726,1.951,1.951,0,0,1,.967-.131,1.991,1.991,0,0,1,1.294.681,1.668,1.668,0,0,1,.406,1.369c-.031.124-.063.247-.1.367a1.206,1.206,0,0,1-.182.357c-.241.335-.439.62-.594.853s-.3.451-.433.651-.257.4-.38.6l-.449.7q-.315.487-.7,1.059c-.261.384-.51.775-.751,1.181a12.563,12.563,0,0,0-.641,1.2,3.837,3.837,0,0,0-.341,1.116.812.812,0,0,0,.186.773A1.49,1.49,0,0,0,50.76,20a3.362,3.362,0,0,0,1.249-.094,8.158,8.158,0,0,0,1.357-.482,11.352,11.352,0,0,0,1.379-.741c.459-.286.894-.579,1.306-.877s.792-.588,1.145-.867.647-.528.886-.753a1.231,1.231,0,0,1,.879-.288.726.726,0,0,1,.569.41,1.434,1.434,0,0,1,.133.881,2.554,2.554,0,0,1-.369.985,3.021,3.021,0,0,1-.906.918q-1.2.946-2.424,1.791a19.256,19.256,0,0,1-2.473,1.455,12.55,12.55,0,0,1-2.469.92,6.426,6.426,0,0,1-2.4.159,3.873,3.873,0,0,1-2.536-1.2,3.439,3.439,0,0,1-.622-2.81,6.663,6.663,0,0,1,.508-1.834,15.525,15.525,0,0,1,.867-1.691q.487-.814,1-1.561c.345-.5.643-.975.9-1.434q.138-.257.467-.786c.222-.351.453-.708.7-1.071.28-.428.577-.881.892-1.363m2.877-4.379a3.022,3.022,0,0,1,.3-.963,2.879,2.879,0,0,1,.647-.857,2.848,2.848,0,0,1,.969-.571,2.763,2.763,0,0,1,1.29-.11,2.406,2.406,0,0,1,1.622.679A1.57,1.57,0,0,1,58.823,4.7a2.739,2.739,0,0,1-.265.851,2.969,2.969,0,0,1-.579.824,2.511,2.511,0,0,1-.894.571,2.472,2.472,0,0,1-1.218.118,3.034,3.034,0,0,1-1.755-.635,1.486,1.486,0,0,1-.445-1.143" transform="translate(47.241 2.866)"/>
      <path id="パス_608" data-name="パス 608" d="M62.844,6.716a7.557,7.557,0,0,1,1.634.53,5.182,5.182,0,0,1,1.516,1.018A4.128,4.128,0,0,1,67,9.813a3.753,3.753,0,0,1,.118,2.1,7.081,7.081,0,0,1-.437,1.377,10.924,10.924,0,0,1-.816,1.557,1.169,1.169,0,0,0,.408.441,1.563,1.563,0,0,0,.553.214,2.319,2.319,0,0,0,1.006-.061,7.164,7.164,0,0,0,1.2-.428,12.913,12.913,0,0,0,1.283-.667q.649-.386,1.238-.781c.392-.265.751-.518,1.071-.763s.6-.449.816-.62a.488.488,0,0,1,.375-.075.645.645,0,0,1,.455.4,1.372,1.372,0,0,1,.065.875,3.1,3.1,0,0,1-.555,1.171,4.683,4.683,0,0,1-1.467,1.228c-.4.294-.851.63-1.365,1.014a15.817,15.817,0,0,1-1.612,1.051,9.219,9.219,0,0,1-1.7.757,3.229,3.229,0,0,1-1.642.129,3.352,3.352,0,0,1-1.008-.365,3.814,3.814,0,0,1-.912-.73A12.957,12.957,0,0,1,61.983,19.4a10.551,10.551,0,0,1-2.42,1.216,10.959,10.959,0,0,1-2.712.569,10.659,10.659,0,0,1-2.942-.175,4.857,4.857,0,0,1-1.29-.484,4.613,4.613,0,0,1-1.3-1.03,4.457,4.457,0,0,1-.9-1.591,4.232,4.232,0,0,1-.073-2.144A9.037,9.037,0,0,1,51,13.837a13.282,13.282,0,0,1,1.271-2.214,14.919,14.919,0,0,1,1.847-2.157,10.761,10.761,0,0,1,2.4-1.771,9.821,9.821,0,0,1,2.93-1.032,9.025,9.025,0,0,1,3.4.053m-1.769,3.407a3.939,3.939,0,0,0-1.953.122,5.771,5.771,0,0,0-1.83.967,6.61,6.61,0,0,0-1.445,1.573,5.4,5.4,0,0,0-.806,1.965,6.761,6.761,0,0,0-.1.863,2.713,2.713,0,0,0,.09.912,1.8,1.8,0,0,0,.435.777,1.687,1.687,0,0,0,.934.459,3.757,3.757,0,0,0,1.934-.147,6.084,6.084,0,0,0,1.849-1.006,6.612,6.612,0,0,0,1.465-1.624,5.636,5.636,0,0,0,.814-1.993,7.48,7.48,0,0,0,.112-.863,2.307,2.307,0,0,0-.09-.859,1.657,1.657,0,0,0-.445-.716,1.914,1.914,0,0,0-.961-.431" transform="translate(52.275 6.789)"/>
      <path id="パス_609" data-name="パス 609" d="M66.467,9.82a3.245,3.245,0,0,1,1.379-.992,2.144,2.144,0,0,1,1.306-.075,1.269,1.269,0,0,1,.761.6,1.377,1.377,0,0,1,.082,1.145,2.923,2.923,0,0,1-.224.547,3.017,3.017,0,0,1-.408.577,6.539,6.539,0,0,1,1.6-.786,12.227,12.227,0,0,1,2.13-.535,13.889,13.889,0,0,1,2.271-.175,7.6,7.6,0,0,1,2.089.282,3.116,3.116,0,0,1,1.628,1.03,2.079,2.079,0,0,1,.2,1.946,5.813,5.813,0,0,1-.659,1.443,12.047,12.047,0,0,1-1.03,1.4,17.709,17.709,0,0,1-1.23,1.308q-.652.627-1.269,1.169l-1.126.988q-.511.45-.818.753a1.194,1.194,0,0,0-.477.667.434.434,0,0,0,.018.312.416.416,0,0,0,.284.214,2.163,2.163,0,0,0,.333.061,1.209,1.209,0,0,0,.5-.082,19.06,19.06,0,0,0,2.512-.357q1.31-.269,2.55-.639t2.312-.786q1.068-.419,1.81-.792a1.114,1.114,0,0,1,.38-.106.881.881,0,0,1,.318.027.644.644,0,0,1,.457.418,1.149,1.149,0,0,1,0,.718,3.224,3.224,0,0,1-.8,1.271A4.576,4.576,0,0,1,81.7,22.437q-1.383.49-2.536.894t-2.322.708a22.744,22.744,0,0,1-2.45.484,21.065,21.065,0,0,1-2.94.178,8.835,8.835,0,0,1-1.024-.039,4.453,4.453,0,0,1-.816-.149,1.993,1.993,0,0,1-1.385-1.049,2.645,2.645,0,0,1-.008-1.8c.029-.094.057-.184.09-.267s.069-.18.114-.284a4.776,4.776,0,0,1,.73-1.269,15.378,15.378,0,0,1,1.149-1.32c.426-.443.871-.877,1.328-1.3s.885-.832,1.279-1.218.735-.735,1.014-1.045a2.273,2.273,0,0,0,.52-.808.811.811,0,0,0-.024-.561.646.646,0,0,0-.449-.361,4.548,4.548,0,0,0-2.663.051A11.8,11.8,0,0,0,68.6,14.529a22.3,22.3,0,0,0-2.538,1.822q-1.206,1-2.136,1.8a13.167,13.167,0,0,0-1.147,1.2c-.365.437-.735.839-1.1,1.2a4.658,4.658,0,0,1-1.13.847,1.645,1.645,0,0,1-1.261.1,1.478,1.478,0,0,1-.975-.765,1.593,1.593,0,0,1-.084-1.2,3.763,3.763,0,0,1,.6-1.022q.5-.679,1.238-1.557t1.624-1.869q.888-.995,1.771-1.967t1.681-1.832c.526-.571.969-1.061,1.32-1.467" transform="translate(60.498 9.032)"/>
    </g>
  </g>
</svg>
