<svg id="グループ_2826" data-name="グループ 2826" xmlns="http://www.w3.org/2000/svg" xmlns:xlink="http://www.w3.org/1999/xlink" width="331.105" height="15.484" viewBox="0 0 331.105 15.484">
  <defs>
    <clipPath id="clip-path">
      <rect id="長方形_2178" data-name="長方形 2178" width="331.105" height="15.484" fill="#f9fd3a"/>
    </clipPath>
  </defs>
  <g id="グループ_2825" data-name="グループ 2825" transform="translate(0 0)" clip-path="url(#clip-path)">
    <path id="パス_870" data-name="パス 870" d="M329.923,6.6c.324,1.1,1.031.924,1.182,2.216a1.736,1.736,0,0,0-1.009,1.2l-1.386.257c-.008.1-.018.206-.026.309l-.907-.035c-.008.1-.016.206-.026.309-1.8.354-3.179-.553-4.03-.775l-3.627-.139c.008-.1.016-.206.026-.309l-2.268-.087c.008-.1.018-.206.026-.309l-2.72-.1c.008-.1.016-.206.026-.309l-5.9-.226c.008-.1.016-.206.026-.309l-8.592-.64c.01-.1.018-.206.026-.309l-3.2.187c.008-.1.018-.206.026-.309l-13.152-.5c.01-.1.018-.206.026-.309l-2.745.2c.008-.1.016-.206.026-.309l-2.268-.087c-.624-.1.214-.313-.428-.327-.008.1-.016.206-.026.309l-4.534-.174c-1.926-.438-5.872-.183-9.069-.348l-2.7-.414c-.008.1-.016.206-.026.309L255.4,5.6c.008-.1.016-.206.026-.309l-.454-.017c-.01.1-.018.206-.026.309l-2.7-.414c-.008.1-.018.206-.026.309l-3.6-.449-6.8-.261c-.008.1-.018.206-.026.309l-1.815-.07c-1.033-.083-1.691-.637-3.148-.431-.008.1-.018.206-.026.309l-5.9-.226c-.008.1-.018.206-.026.309l-5.87-.536c-.008.1-.018.206-.026.308L222.3,4.329c-.01.1-.018.2-.026.308l-6.8-.261c-.008.1-.018.206-.026.309l-6.8-.261c-2.372.363-6.443-.445-9.094-.039-.01.1-.018.206-.026.309l-6.349-.244c-.008.1-.018.206-.026.309l-5.9-.226c.008-.1.018-.206.026-.309l-.454-.017c-.008.1-.018.206-.026.309l-3.174-.122c-.01.1-.018.206-.026.309l-6.8-.261c-.008.1-.018.206-.026.309l-8.163-.315c-.008.1-.016.206-.026.309-.6-.126-1.192-.252-1.787-.379-.01.1-.018.206-.026.309l-3.629-.139a.813.813,0,0,0-.88-.344c-.01.1-.018.206-.026.309l-1.361-.052c-.01.1-.018.206-.026.309l-4.534-.174c-.01.1-.018.206-.026.309l-4.083-.157c-.008.1-.016.206-.026.309l-11.362-.126c-.008.1-.016.206-.026.309l-3.173-.122c-.008.1-.018.206-.026.309l-4.081-.157c-.01.1-.018.206-.026.308L131.7,5.193c-.008.1-.018.206-.026.308l-2.72-.1c-.01.1-.018.206-.026.309l-3.175-.122c-.008.1-.018.206-.026.309l-2.72-.1c-.01.1-.018.206-.026.309l-6.8-.261c-.008.1-.018.206-.026.309l-3.627-.139c-.01.1-.018.206-.026.309l-2.268-.087c-.008.1-.018.206-.026.309l-4.534-.174c-.01.1-.018.206-.026.309l-4.988-.191c-.01.1-.018.206-.026.309l-1.361-.052c-.008.1-.018.2-.026.308l-6.8-.261c-.008.1-.018.206-.026.309l-1.361-.052c-.008.1-.016.206-.026.309l-2.72-.1c-.008.1-.018.206-.026.309L86.951,7.2c-.008.1-.018.206-.026.309L81,7.588c-.008.1-.016.206-.026.309l-1.361-.052c-.008.1-.016.206-.026.309l-3.627-.139c-.008.1-.018.206-.026.309l-8.187,0c-.01.1-.018.2-.026.308l-1.815-.07c-.008.1-.018.206-.026.309l-2.268-.087c-.008.1-.016.206-.026.309l-5.467.1c-.008.1-.016.206-.026.309l-3.173-.122c-.008.1-.018.206-.026.309l-8.668.288c-.008.1-.016.206-.026.309l-4.534-.174c-.008.1-.016.2-.026.308l-1.359-.052c-.01.1-.018.206-.026.309l-3.655.17c-.008.1-.016.206-.026.309l-6.828.048c-.008.1-.016.206-.026.309l-1.359-.052c-.01.1-.018.206-.026.309l-2.268-.087c-.008.1-.018.206-.026.309l-2.268-.087c-.008.1-.016.206-.026.309l-3.627-.139c-.008.1-.018.206-.026.309l-1.361-.054c-.008.1-.016.206-.026.309l-1.813-.07c-.01.1-.018.206-.026.309l-3.175-.122c-.008.1-.016.206-.026.309l-1.838.24c-.01.1-.018.206-.026.309l-2.294.222-.5.6-5.09,1.044a13.457,13.457,0,0,0-1.789-.379A2.5,2.5,0,0,0,0,13.473L.76,9.78,2.6,9.54c.336-.96.55-1.279,1.942-1.477C6.041,7.1,6.6,7.987,8.672,7.6c.01-.1.018-.206.026-.309l1.361.052c.008-.1.018-.206.026-.309l1.361.052c.008-.1.018-.206.026-.309l1.361.052c.008-.1.016-.206.026-.309l3.627.139c.008-.1.018-.206.026-.309L17.87,6.4c.008-.1.016-.206.026-.309l8.187,0c.01-.1.018-.206.026-.309l1.361.052c.008-.1.018-.206.026-.309l4.081.158c.01-.1.018-.206.026-.309l.907.035c.008-.1.018-.206.026-.309l5.9.226c.008-.1.018-.206.026-.309l.907.035c.008-.1.018-.206.026-.309L48.961,4.5c.008-.1.018-.206.026-.309l4.081.157c.01-.1.018-.206.026-.309l4.536.174c.008-.1.016-.206.026-.309l1.359.052c.01-.1.018-.2.026-.308l5.467-.1c.01-.1.018-.206.026-.309l1.361.052c.008-.1.018-.206.026-.309L70,3.133c.01-.1.018-.206.026-.309.3-.048,4.108-.153,4.108-.153-.01.1-.018.206-.026.309l2.72.1c.008-.1.018-.206.026-.309l1.361.052c.008-.1.018-.206.026-.309l2.266.087c.01-.1.018-.206.026-.309l3.15.431c.008-.1.018-.206.026-.309l.907.035c.008-.1.016-.206.026-.309l4.988.193c.008-.1.016-.206.026-.309l3.173.122c.01-.1.018-.206.026-.309,1.681-.269,4.093.591,4.962.5.01-.1.018-.206.026-.309l2.747-.2c.008-.1.016-.206.026-.309l3.6.449c.008-.1.018-.206.026-.309l1.815.07c.008-.1.016-.206.026-.309.589-.028.711.534,1.787.379.01-.1.018-.206.027-.309l1.813.07c.01-.1.018-.206.026-.309l4.534.174c.01-.1.018-.206.026-.309l3.629.139c.008-.1.016-.206.026-.309l2.694.414c.01-.1.018-.206.026-.309l3.629.139c.008-.1.016-.2.026-.308l4.534.174c.008-.1.016-.206.026-.309l5.442.209c.008-.1.016-.206.026-.309l3.148.431c.008-.1.018-.206.026-.309l4.56-.135,6.8.261c.008-.1.018-.206.026-.309L152.084.7c.01-.1.018-.206.026-.309l4.99.191c.008-.1.016-.206.026-.309l6.8.261c.01-.1.018-.206.026-.308q.669.179,1.335.36c.008-.1.018-.206.026-.308l8.189,0,.88.344c.01-.1.018-.206.026-.309l3.175.122c.008-.1.018-.206.026-.309l3.148.431c.01-.1.018-.206.026-.309l4.534.174c.01-.1.018-.206.026-.309,2.5-.4,6.4.378,8.643.021l7.708.3a1.492,1.492,0,0,1,1.386-.257c-.008.1-.016.206-.026.309l3.175.122c.008-.1.016-.206.026-.309l4.055.466c.008-.1.018-.206.026-.309L218.5.77c.01-.1.018-.206.026-.309.591-.024.709.521,1.789.379.008-.1.018-.206.026-.308l13.152.5c.008-.1.016-.206.026-.309l8.615.331c.008-.1.018-.206.026-.309,1.051-.092,2.408.675,4.055.466.01-.1.018-.206.026-.309.64-.039-.081.06.428.327l1.386-.257s.3.438,1.335.362c.638-.048-.153-.371.479-.292-.01.1-.018.206-.026.309l2.72.1c.01-.1.018-.206.026-.309l4.509.483c.01-.1.018-.206.026-.309l4.536.174,9.043.657c.008-.1.018-.206.026-.309l17.207.971,2.241.4c.01-.1.018-.206.026-.309l4.963.5c.725,0,6.718-.125,8.617.331-.01.1-.018.206-.026.309l10.858.727.933-.274c-.01.1-.018.206-.026.309l4.534.174c-.008.1-.018.206-.026.309l1.361.052c-.01.1-.018.206-.026.309,1.428.364,2.194-.355,3.2-.187-.008.1-.018.206-.026.309l5.391.828" transform="translate(0 0)" fill="#f9fd3a" fill-rule="evenodd"/>
  </g>
</svg>
